<mxfile host="app.diagrams.net" modified="2023-11-06T19:39:51.322Z" agent="Mozilla/5.0 (X11; Linux x86_64) AppleWebKit/537.36 (KHTML, like Gecko) Chrome/119.0.0.0 Safari/537.36" etag="hTmcysuJQCIi5Rg2BOy3" version="22.0.8" type="device">
  <diagram name="Page-1" id="bGPNsbB07bveSvlhLLx7">
    <mxGraphModel dx="1574" dy="1644" grid="1" gridSize="10" guides="1" tooltips="1" connect="1" arrows="1" fold="1" page="1" pageScale="1" pageWidth="850" pageHeight="1100" math="0" shadow="0">
      <root>
        <mxCell id="0" />
        <mxCell id="3yqzeri3uvWxeGdaNF_o-1" value="background" parent="0" />
        <mxCell id="3yqzeri3uvWxeGdaNF_o-10" value="" style="group;movable=1;resizable=1;rotatable=1;deletable=1;editable=1;locked=0;connectable=1;" parent="3yqzeri3uvWxeGdaNF_o-1" vertex="1" connectable="0">
          <mxGeometry x="10" y="190" width="1660" height="740" as="geometry" />
        </mxCell>
        <mxCell id="3yqzeri3uvWxeGdaNF_o-2" value="AWS Cloud" style="sketch=0;outlineConnect=0;gradientColor=none;html=1;whiteSpace=wrap;fontSize=12;fontStyle=0;shape=mxgraph.aws4.group;grIcon=mxgraph.aws4.group_aws_cloud;strokeColor=#AAB7B8;fillColor=none;verticalAlign=top;align=left;spacingLeft=30;fontColor=#AAB7B8;dashed=0;movable=1;resizable=1;rotatable=1;deletable=1;editable=1;locked=0;connectable=1;" parent="3yqzeri3uvWxeGdaNF_o-10" vertex="1">
          <mxGeometry width="1660" height="740" as="geometry" />
        </mxCell>
        <mxCell id="3yqzeri3uvWxeGdaNF_o-3" value="AWS Account" style="points=[[0,0],[0.25,0],[0.5,0],[0.75,0],[1,0],[1,0.25],[1,0.5],[1,0.75],[1,1],[0.75,1],[0.5,1],[0.25,1],[0,1],[0,0.75],[0,0.5],[0,0.25]];outlineConnect=0;gradientColor=none;html=1;whiteSpace=wrap;fontSize=12;fontStyle=0;container=1;pointerEvents=0;collapsible=0;recursiveResize=0;shape=mxgraph.aws4.group;grIcon=mxgraph.aws4.group_account;strokeColor=#CD2264;fillColor=none;verticalAlign=top;align=left;spacingLeft=30;fontColor=#CD2264;dashed=0;" parent="3yqzeri3uvWxeGdaNF_o-10" vertex="1">
          <mxGeometry x="60.00000000000001" y="46.25" width="640.0000000000001" height="647.5" as="geometry" />
        </mxCell>
        <mxCell id="3yqzeri3uvWxeGdaNF_o-13" value="VPC - 10.3.0.0/16" style="sketch=0;outlineConnect=0;gradientColor=none;html=1;whiteSpace=wrap;fontSize=12;fontStyle=0;shape=mxgraph.aws4.group;grIcon=mxgraph.aws4.group_vpc;strokeColor=#879196;fillColor=none;verticalAlign=top;align=left;spacingLeft=30;fontColor=#879196;dashed=0;movable=1;resizable=1;rotatable=1;deletable=1;editable=1;locked=0;connectable=1;" parent="3yqzeri3uvWxeGdaNF_o-3" vertex="1">
          <mxGeometry x="50" y="43.75" width="560" height="566.25" as="geometry" />
        </mxCell>
        <mxCell id="3yqzeri3uvWxeGdaNF_o-25" value="VPN Connection" style="outlineConnect=0;dashed=0;verticalLabelPosition=bottom;verticalAlign=top;align=center;html=1;shape=mxgraph.aws3.vpn_connection;fillColor=#F58536;gradientColor=none;" parent="3yqzeri3uvWxeGdaNF_o-3" vertex="1">
          <mxGeometry x="331" y="234.75" width="48.75" height="40" as="geometry" />
        </mxCell>
        <mxCell id="3yqzeri3uvWxeGdaNF_o-33" value="all rtbs: route propagation = on" style="outlineConnect=0;dashed=0;verticalLabelPosition=bottom;verticalAlign=top;align=center;html=1;shape=mxgraph.aws3.route_table;fillColor=#F58536;gradientColor=none;" parent="3yqzeri3uvWxeGdaNF_o-3" vertex="1">
          <mxGeometry x="150" y="513.75" width="43.48" height="40" as="geometry" />
        </mxCell>
        <mxCell id="pm4B9M8xPfH_yNTQvnyw-20" value="CGW&lt;br&gt;Provides info about &lt;br&gt;on-prem openswan." style="outlineConnect=0;dashed=0;verticalLabelPosition=bottom;verticalAlign=top;align=center;html=1;shape=mxgraph.aws3.customer_gateway;fillColor=#F58534;gradientColor=none;" parent="3yqzeri3uvWxeGdaNF_o-3" vertex="1">
          <mxGeometry x="400" y="123.75" width="38.33" height="40" as="geometry" />
        </mxCell>
        <mxCell id="pm4B9M8xPfH_yNTQvnyw-24" style="edgeStyle=orthogonalEdgeStyle;rounded=0;orthogonalLoop=1;jettySize=auto;html=1;exitX=0.2;exitY=0.55;exitDx=0;exitDy=0;exitPerimeter=0;" parent="3yqzeri3uvWxeGdaNF_o-3" source="3yqzeri3uvWxeGdaNF_o-25" target="pm4B9M8xPfH_yNTQvnyw-20" edge="1">
          <mxGeometry relative="1" as="geometry">
            <mxPoint x="330" y="243.75" as="sourcePoint" />
            <Array as="points">
              <mxPoint x="330" y="257" />
              <mxPoint x="310" y="257" />
              <mxPoint x="310" y="134" />
            </Array>
          </mxGeometry>
        </mxCell>
        <mxCell id="pm4B9M8xPfH_yNTQvnyw-25" value="VPNConnectionRoute" style="swimlane;fontStyle=0;childLayout=stackLayout;horizontal=1;startSize=30;horizontalStack=0;resizeParent=1;resizeParentMax=0;resizeLast=0;collapsible=1;marginBottom=0;whiteSpace=wrap;html=1;" parent="3yqzeri3uvWxeGdaNF_o-3" vertex="1">
          <mxGeometry x="130" y="133.75" width="140" height="90" as="geometry" />
        </mxCell>
        <mxCell id="pm4B9M8xPfH_yNTQvnyw-26" value="10.3.0.0/16" style="text;strokeColor=none;fillColor=none;align=left;verticalAlign=middle;spacingLeft=4;spacingRight=4;overflow=hidden;points=[[0,0.5],[1,0.5]];portConstraint=eastwest;rotatable=0;whiteSpace=wrap;html=1;" parent="pm4B9M8xPfH_yNTQvnyw-25" vertex="1">
          <mxGeometry y="30" width="140" height="30" as="geometry" />
        </mxCell>
        <mxCell id="pm4B9M8xPfH_yNTQvnyw-27" value="10.4.0.0/16" style="text;strokeColor=none;fillColor=none;align=left;verticalAlign=middle;spacingLeft=4;spacingRight=4;overflow=hidden;points=[[0,0.5],[1,0.5]];portConstraint=eastwest;rotatable=0;whiteSpace=wrap;html=1;" parent="pm4B9M8xPfH_yNTQvnyw-25" vertex="1">
          <mxGeometry y="60" width="140" height="30" as="geometry" />
        </mxCell>
        <mxCell id="pm4B9M8xPfH_yNTQvnyw-30" style="edgeStyle=orthogonalEdgeStyle;rounded=0;orthogonalLoop=1;jettySize=auto;html=1;entryX=0.409;entryY=1.153;entryDx=0;entryDy=0;entryPerimeter=0;" parent="3yqzeri3uvWxeGdaNF_o-3" source="3yqzeri3uvWxeGdaNF_o-25" target="pm4B9M8xPfH_yNTQvnyw-27" edge="1">
          <mxGeometry relative="1" as="geometry">
            <Array as="points">
              <mxPoint x="187" y="274" />
            </Array>
          </mxGeometry>
        </mxCell>
        <mxCell id="3yqzeri3uvWxeGdaNF_o-5" value="AWS Account" style="points=[[0,0],[0.25,0],[0.5,0],[0.75,0],[1,0],[1,0.25],[1,0.5],[1,0.75],[1,1],[0.75,1],[0.5,1],[0.25,1],[0,1],[0,0.75],[0,0.5],[0,0.25]];outlineConnect=0;gradientColor=none;html=1;whiteSpace=wrap;fontSize=12;fontStyle=0;container=1;pointerEvents=0;collapsible=0;recursiveResize=0;shape=mxgraph.aws4.group;grIcon=mxgraph.aws4.group_account;strokeColor=#CD2264;fillColor=none;verticalAlign=top;align=left;spacingLeft=30;fontColor=#CD2264;dashed=0;" parent="3yqzeri3uvWxeGdaNF_o-10" vertex="1">
          <mxGeometry x="940.0000000000001" y="46.25" width="640.0000000000001" height="647.5" as="geometry" />
        </mxCell>
        <mxCell id="3yqzeri3uvWxeGdaNF_o-14" value="VPC - 10.4.0.0/16" style="sketch=0;outlineConnect=0;gradientColor=none;html=1;whiteSpace=wrap;fontSize=12;fontStyle=0;shape=mxgraph.aws4.group;grIcon=mxgraph.aws4.group_vpc;strokeColor=#879196;fillColor=none;verticalAlign=top;align=left;spacingLeft=30;fontColor=#879196;dashed=0;movable=1;resizable=1;rotatable=1;deletable=1;editable=1;locked=0;connectable=1;" parent="3yqzeri3uvWxeGdaNF_o-5" vertex="1">
          <mxGeometry x="50" y="43.75" width="560" height="566.25" as="geometry" />
        </mxCell>
        <mxCell id="3yqzeri3uvWxeGdaNF_o-48" value="Security group" style="fillColor=none;strokeColor=#DD3522;verticalAlign=top;fontStyle=0;fontColor=#DD3522;whiteSpace=wrap;html=1;" parent="3yqzeri3uvWxeGdaNF_o-5" vertex="1">
          <mxGeometry x="139.25" y="213.5" width="120.75" height="126.5" as="geometry" />
        </mxCell>
        <mxCell id="3yqzeri3uvWxeGdaNF_o-28" value="openswan&lt;br&gt;server&lt;br&gt;&lt;font style=&quot;font-size: 9px;&quot;&gt;(customer gw device)&lt;/font&gt;" style="outlineConnect=0;dashed=0;verticalLabelPosition=bottom;verticalAlign=top;align=center;html=1;shape=mxgraph.aws3.instance;fillColor=#F58534;gradientColor=none;" parent="3yqzeri3uvWxeGdaNF_o-5" vertex="1">
          <mxGeometry x="179.2499999999999" y="243.5" width="39.05" height="41" as="geometry" />
        </mxCell>
        <mxCell id="3yqzeri3uvWxeGdaNF_o-34" value="all rtbs: 10.4.0.0/16 &amp;lt;openswan_server_id&amp;gt;" style="outlineConnect=0;dashed=0;verticalLabelPosition=bottom;verticalAlign=top;align=center;html=1;shape=mxgraph.aws3.route_table;fillColor=#F58536;gradientColor=none;" parent="3yqzeri3uvWxeGdaNF_o-5" vertex="1">
          <mxGeometry x="179.9999999999999" y="513.75" width="43.48" height="40" as="geometry" />
        </mxCell>
        <mxCell id="3yqzeri3uvWxeGdaNF_o-27" style="edgeStyle=orthogonalEdgeStyle;rounded=0;orthogonalLoop=1;jettySize=auto;html=1;shape=link;" parent="3yqzeri3uvWxeGdaNF_o-10" source="3yqzeri3uvWxeGdaNF_o-25" target="3yqzeri3uvWxeGdaNF_o-26" edge="1">
          <mxGeometry relative="1" as="geometry">
            <Array as="points">
              <mxPoint x="889.25" y="320.75" />
              <mxPoint x="889.25" y="320.75" />
            </Array>
          </mxGeometry>
        </mxCell>
        <mxCell id="3yqzeri3uvWxeGdaNF_o-31" value="tunnel1" style="edgeLabel;html=1;align=center;verticalAlign=middle;resizable=0;points=[];" parent="3yqzeri3uvWxeGdaNF_o-27" vertex="1" connectable="0">
          <mxGeometry x="0.0498" y="-2" relative="1" as="geometry">
            <mxPoint x="-12" y="-3" as="offset" />
          </mxGeometry>
        </mxCell>
        <mxCell id="3yqzeri3uvWxeGdaNF_o-26" value="internet" style="outlineConnect=0;dashed=0;verticalLabelPosition=bottom;verticalAlign=top;align=center;html=1;shape=mxgraph.aws3.internet_2;fillColor=#D2D3D3;gradientColor=none;" parent="3yqzeri3uvWxeGdaNF_o-10" vertex="1">
          <mxGeometry x="800" y="270" width="69.19" height="47" as="geometry" />
        </mxCell>
        <mxCell id="3yqzeri3uvWxeGdaNF_o-30" style="edgeStyle=orthogonalEdgeStyle;rounded=0;orthogonalLoop=1;jettySize=auto;html=1;shape=link;" parent="3yqzeri3uvWxeGdaNF_o-10" source="3yqzeri3uvWxeGdaNF_o-26" target="3yqzeri3uvWxeGdaNF_o-28" edge="1">
          <mxGeometry relative="1" as="geometry">
            <Array as="points">
              <mxPoint x="1079.25" y="320.75" />
              <mxPoint x="1079.25" y="320.75" />
            </Array>
          </mxGeometry>
        </mxCell>
        <mxCell id="3yqzeri3uvWxeGdaNF_o-32" value="tunnel1" style="edgeLabel;html=1;align=center;verticalAlign=middle;resizable=0;points=[];" parent="3yqzeri3uvWxeGdaNF_o-30" vertex="1" connectable="0">
          <mxGeometry x="0.3763" y="-3" relative="1" as="geometry">
            <mxPoint x="-25" y="-3" as="offset" />
          </mxGeometry>
        </mxCell>
        <mxCell id="3yqzeri3uvWxeGdaNF_o-50" value="VGW&lt;br&gt;Endpoint on the&lt;br&gt;10.3 side of the vpn conn." style="outlineConnect=0;dashed=0;verticalLabelPosition=bottom;verticalAlign=top;align=center;html=1;shape=mxgraph.aws3.customer_gateway;fillColor=#F58534;gradientColor=none;" parent="3yqzeri3uvWxeGdaNF_o-10" vertex="1">
          <mxGeometry x="396" y="390" width="38.33" height="40" as="geometry" />
        </mxCell>
        <mxCell id="pm4B9M8xPfH_yNTQvnyw-22" style="edgeStyle=orthogonalEdgeStyle;rounded=0;orthogonalLoop=1;jettySize=auto;html=1;entryX=0.5;entryY=0;entryDx=0;entryDy=0;entryPerimeter=0;" parent="3yqzeri3uvWxeGdaNF_o-10" source="3yqzeri3uvWxeGdaNF_o-50" target="3yqzeri3uvWxeGdaNF_o-33" edge="1">
          <mxGeometry relative="1" as="geometry" />
        </mxCell>
        <mxCell id="pm4B9M8xPfH_yNTQvnyw-23" style="edgeStyle=orthogonalEdgeStyle;rounded=0;orthogonalLoop=1;jettySize=auto;html=1;" parent="3yqzeri3uvWxeGdaNF_o-10" source="3yqzeri3uvWxeGdaNF_o-25" target="3yqzeri3uvWxeGdaNF_o-50" edge="1">
          <mxGeometry relative="1" as="geometry" />
        </mxCell>
        <mxCell id="3yqzeri3uvWxeGdaNF_o-40" value="title" parent="0" />
        <mxCell id="3yqzeri3uvWxeGdaNF_o-41" value="&lt;h1&gt;Ticket 9. Site-to-Site VPN POC&lt;/h1&gt;" style="text;html=1;strokeColor=none;fillColor=none;spacing=5;spacingTop=-20;whiteSpace=wrap;overflow=hidden;rounded=0;" parent="3yqzeri3uvWxeGdaNF_o-40" vertex="1">
          <mxGeometry x="10" y="140" width="830" height="40" as="geometry" />
        </mxCell>
      </root>
    </mxGraphModel>
  </diagram>
</mxfile>
